# xmcd
#
# Track frame offsets:
#	150
#	8502
#	18504
#	31094
#	43102
#	51934
#	61276
#	72354
#	83212
#	93731
#	104056
#	115255
#
# Disc length: 1650 seconds
#
# Revision: 1
# Processed by: cddbd v1.5.2PL0 Copyright (c) Steve Scherf et al.
# Submitted via: audiograbber 1.83.01
#
DISCID=9d06700c
DTITLE=Johnny Cash - Classic Cash
DYEAR=2008
DGENRE=Country
TTITLE0=Guess Things Happen that Way
TTITLE1=Ballad of a Teenage Queen
TTITLE2=Next in Line
TTITLE3=Home of the Blues
TTITLE4=Katy Too
TTITLE5=Luther Played the Boogie
TTITLE6=Cry, Cry, Cry
TTITLE7=Fool's Hall of Fame
TTITLE8=Cold Cold Heart
TTITLE9=I Was There When it Happened
TTITLE10=Mean Eyed Cat
TTITLE11=I Forgot to Remember to Forget
EXTD=
EXTT0=
EXTT1=
EXTT2=
EXTT3=
EXTT4=
EXTT5=
EXTT6=
EXTT7=
EXTT8=
EXTT9=
EXTT10=
EXTT11=
PLAYORDER=
